<svg width="19" height="18" viewBox="0 0 19 18" fill="none" xmlns="http://www.w3.org/2000/svg">
<path d="M18.9301 8.3814C18.9329 8.37809 18.9356 8.37478 18.9389 8.37146C18.9423 8.3676 18.9456 8.36373 18.9489 8.35986C18.9511 8.3571 18.9527 8.35434 18.9544 8.35158C18.9577 8.34661 18.9616 8.34164 18.9643 8.33667C18.966 8.33391 18.9677 8.33114 18.9688 8.32838C18.9715 8.32286 18.9748 8.31789 18.9776 8.31236C18.9798 8.30795 18.9815 8.30353 18.9831 8.29911C18.9848 8.29524 18.987 8.29082 18.9881 8.28696C18.9903 8.28088 18.992 8.27481 18.9936 8.26873C18.9942 8.26597 18.9953 8.26321 18.9964 8.26045C18.998 8.25437 18.9991 8.2483 19.0002 8.24222C19.0008 8.23891 19.0019 8.23615 19.0019 8.23283C19.003 8.22786 19.003 8.22234 19.0036 8.21737C19.0036 8.21295 19.0047 8.20853 19.0047 8.20466C19.0047 8.20024 19.0047 8.19583 19.0047 8.19141C19.0047 8.18588 19.0047 8.18091 19.0047 8.17539C19.0047 8.17428 19.0047 8.17318 19.0047 8.17263C19.0047 8.16932 19.0041 8.16655 19.0036 8.16324C19.0036 8.15772 19.0025 8.15219 19.0019 8.14722C19.0014 8.1428 19.0002 8.13838 18.9997 8.13341C18.9986 8.129 18.998 8.12402 18.9969 8.11961C18.9958 8.11408 18.9942 8.10911 18.9925 8.10414C18.9914 8.10028 18.9903 8.09696 18.9892 8.09309C18.987 8.08702 18.9848 8.0815 18.9826 8.07542C18.9815 8.07266 18.9804 8.0699 18.9793 8.06714C18.9765 8.06051 18.9732 8.05388 18.9693 8.0478C18.9682 8.04615 18.9677 8.04449 18.9666 8.04228C18.9621 8.0351 18.9577 8.02792 18.9527 8.02074C18.9527 8.02019 18.9516 8.01908 18.9511 8.01853C18.9075 7.95722 18.8406 7.91359 18.7633 7.90089C18.7633 7.90089 18.7627 7.90089 18.7622 7.90089C18.7561 7.89978 18.7495 7.89923 18.7429 7.89868C18.7396 7.89868 18.7362 7.89813 18.7329 7.89757C18.728 7.89757 18.7235 7.89757 18.7186 7.89757C18.7136 7.89757 18.7086 7.89757 18.7037 7.89757C18.7025 7.89757 18.7014 7.89757 18.7003 7.89757C17.0268 7.98097 15.081 6.40245 15.0617 6.38699C14.954 6.29862 14.7988 6.29917 14.6916 6.3892L11.8107 8.80834L13.3583 4.054C13.4014 3.92145 13.344 3.77729 13.2219 3.71046C13.1943 3.69555 10.4576 2.1811 9.76827 0.194968C9.76827 0.193863 9.76772 0.193311 9.76717 0.192206C9.76551 0.186683 9.7633 0.181712 9.76109 0.176741C9.75944 0.172875 9.75778 0.169009 9.75612 0.165143C9.75391 0.160724 9.75171 0.156858 9.7495 0.152992C9.74729 0.148573 9.74508 0.144155 9.74232 0.139736C9.74066 0.136975 9.73845 0.133661 9.73624 0.130899C9.73292 0.125928 9.72961 0.120957 9.7263 0.116539C9.72409 0.113777 9.72188 0.111568 9.72022 0.108806C9.71636 0.103836 9.71304 0.099417 9.70862 0.0949985C9.70531 0.0916846 9.70199 0.0883707 9.69868 0.0850568C9.69537 0.0817429 9.69205 0.078429 9.68874 0.0751151C9.68432 0.0712488 9.6799 0.0673826 9.67548 0.0640687C9.67272 0.0618595 9.66996 0.0596502 9.6672 0.0574409C9.66278 0.054127 9.65781 0.0513654 9.65339 0.0480515C9.65008 0.0458423 9.64732 0.043633 9.644 0.0419761C9.64013 0.0397668 9.63572 0.0375575 9.63185 0.0353483C9.62743 0.033139 9.62301 0.0303774 9.61859 0.0281681C9.61528 0.0265112 9.61141 0.0254066 9.6081 0.0237496C9.60258 0.0215403 9.59705 0.0187788 9.59153 0.0171218C9.59098 0.0171218 9.58988 0.0165695 9.58932 0.0160172C9.58711 0.0149125 9.58435 0.0149125 9.58214 0.0138079C9.57607 0.012151 9.56999 0.0099417 9.56392 0.00828475C9.5606 0.00718012 9.55729 0.0066278 9.55342 0.00607548C9.54735 0.00497085 9.54182 0.00386622 9.53575 0.00276158C9.53188 0.00276158 9.52857 0.00165695 9.5247 0.00165695C9.51918 0.00110463 9.5131 0.000552317 9.50758 0C9.50371 0 9.49985 0 9.49598 0C9.49046 0 9.48493 0 9.47941 0C9.47555 0 9.47113 0.000552317 9.46726 0.00110463C9.46229 0.00110463 9.45677 0.00220927 9.4518 0.00276158C9.44738 0.0033139 9.44296 0.00441853 9.43854 0.00497085C9.43357 0.00607548 9.42915 0.0066278 9.42418 0.00828475C9.41921 0.00938938 9.41424 0.0110463 9.40927 0.0127033C9.40595 0.0138079 9.40264 0.0143602 9.39933 0.0154649C9.39822 0.0154649 9.39712 0.0165695 9.39656 0.0165695C9.39215 0.0182264 9.38718 0.0204357 9.38276 0.0220927C9.37834 0.0237496 9.37392 0.0254066 9.3695 0.0276158C9.36619 0.0292728 9.36287 0.0309297 9.35956 0.033139C9.35459 0.0359006 9.34906 0.0386622 9.34409 0.0414237C9.34188 0.0425284 9.33968 0.0441853 9.33802 0.0458423C9.33194 0.0497085 9.32642 0.0535747 9.3209 0.0574409C9.31924 0.0585456 9.31814 0.0602025 9.31648 0.0613071C9.31096 0.0657257 9.30488 0.0701442 9.29936 0.0751151C9.29715 0.0773243 9.29438 0.0800859 9.29218 0.0822952C9.28776 0.0861614 9.28389 0.0905799 9.27947 0.0949985C9.27616 0.0988647 9.27285 0.103283 9.26953 0.107149C9.26677 0.110463 9.26456 0.113225 9.2618 0.116539C9.25848 0.120957 9.25572 0.125928 9.25241 0.130347C9.2502 0.133661 9.24799 0.136422 9.24633 0.139736C9.24357 0.143602 9.24191 0.148021 9.23915 0.152439C9.23694 0.156858 9.23473 0.160724 9.23252 0.165143C9.23087 0.169009 9.22921 0.172875 9.22756 0.176189C9.22535 0.18116 9.22313 0.186683 9.22148 0.191654C9.22148 0.192759 9.22093 0.193311 9.22038 0.194415C8.53108 2.18055 5.79435 3.695 5.76674 3.70991C5.64412 3.77674 5.58668 3.92145 5.63032 4.054L7.18067 8.81608L4.31138 6.40687C4.20479 6.3174 4.04903 6.31629 3.94133 6.40466C3.922 6.42068 1.97674 7.9992 0.302668 7.9158C0.301564 7.9158 0.301012 7.9158 0.299908 7.9158C0.294384 7.9158 0.288309 7.9158 0.282786 7.9158C0.27892 7.9158 0.275052 7.9158 0.270633 7.9158C0.265662 7.9158 0.260694 7.91691 0.255723 7.91746C0.251304 7.91746 0.246886 7.91856 0.242468 7.91912C0.238049 7.91967 0.233078 7.92077 0.22866 7.92188C0.224241 7.92298 0.219271 7.92353 0.214852 7.92464C0.209329 7.9263 0.203253 7.92795 0.19773 7.93016C0.194416 7.93127 0.191652 7.93182 0.188339 7.93292C0.180054 7.93624 0.171769 7.93955 0.164036 7.94342C0.164036 7.94342 0.164036 7.94342 0.163484 7.94342C0.146914 7.95115 0.131451 7.96054 0.116538 7.97214C0.116538 7.97214 0.116537 7.97214 0.115985 7.97214C0.10991 7.97656 0.104387 7.98097 0.0988635 7.98595C0.0972065 7.9876 0.0955515 7.98871 0.0938945 7.99036C0.089476 7.99423 0.085608 7.99865 0.0817418 8.00251C0.0789802 8.00528 0.0762207 8.00804 0.0734591 8.0108C0.0723544 8.0119 0.0717994 8.01246 0.0706948 8.01356C0.0679332 8.01632 0.0657237 8.01964 0.0635144 8.0224C0.0607528 8.02571 0.0579933 8.02958 0.0552317 8.03289C0.0524701 8.03676 0.0497072 8.04118 0.0469456 8.0456C0.0447363 8.04946 0.0419745 8.05278 0.0397652 8.05664C0.0370036 8.06106 0.0347941 8.06548 0.0325848 8.0699C0.0303755 8.07376 0.0287194 8.07763 0.0265101 8.0815C0.0243009 8.08591 0.0226447 8.09089 0.0204354 8.09586C0.0187785 8.09972 0.0171206 8.10414 0.016016 8.10801C0.014359 8.11298 0.0127011 8.11795 0.0115965 8.12292C0.0104919 8.12734 0.00938736 8.13121 0.00828273 8.13562C0.00717809 8.14059 0.0060736 8.14612 0.00496896 8.15109C0.00441665 8.15495 0.00331323 8.15937 0.00276091 8.16379C0.00220859 8.16931 0.00165803 8.17484 0.00110571 8.18036C0.00110571 8.18367 0.000552317 8.18644 0 8.18975C0 8.19086 0 8.19196 0 8.19251C0 8.19804 0 8.20301 0 8.20853C0 8.21295 0 8.21737 0 8.22178C0 8.2262 0.00110571 8.23062 0.00110571 8.23449C0.00165803 8.24001 0.00220859 8.24498 0.00276091 8.24995C0.00276091 8.25327 0.00386716 8.25603 0.00441948 8.25934C0.00552411 8.26542 0.00662578 8.27149 0.00828273 8.27757C0.00883504 8.28033 0.00994238 8.28309 0.011047 8.28585C0.012704 8.29193 0.0143596 8.298 0.0165688 8.30408C0.0182258 8.3085 0.0198842 8.31236 0.0215412 8.31623C0.0231981 8.32065 0.0248537 8.32507 0.027063 8.32949C0.0298246 8.33501 0.0325847 8.33998 0.0358986 8.3455C0.0375555 8.34826 0.0386611 8.35103 0.040318 8.35379C0.0436319 8.35876 0.0469454 8.36373 0.0502593 8.3687C0.0524686 8.37146 0.0541276 8.37422 0.0557845 8.37699C0.0590984 8.38085 0.0624119 8.38472 0.0657258 8.38858C0.0684874 8.3919 0.0712475 8.39576 0.0745614 8.39853C0.077323 8.40184 0.0806388 8.4046 0.0834004 8.40736C0.0872666 8.41123 0.0911306 8.4151 0.0949969 8.41896C0.0955492 8.41951 0.0961036 8.42062 0.0972083 8.42117C1.3598 9.52304 1.66413 12.0101 1.66744 12.035C1.68346 12.1736 1.79613 12.2808 1.93532 12.2907L6.04179 12.574C6.04787 12.5895 6.0545 12.6039 6.06278 12.6177L3.98994 14.9076C3.90709 14.9993 3.89162 15.1335 3.95072 15.2417C4.00209 15.3351 4.09985 15.392 4.20423 15.392C4.2208 15.392 4.23682 15.3903 4.25339 15.3875L9.20325 14.5331V17.7106C9.20325 17.8708 9.33305 18 9.49267 18C9.65229 18 9.78208 17.8702 9.78208 17.7106V14.5331L14.7319 15.3875C14.7485 15.3903 14.7651 15.392 14.7811 15.392C14.8855 15.392 14.9832 15.3356 15.0346 15.2417C15.0943 15.1335 15.0782 14.9993 14.9954 14.9076L12.8717 12.5619L17.0644 12.2725C17.2036 12.2631 17.3157 12.1554 17.3322 12.0173C17.335 11.9925 17.6399 9.50537 18.9025 8.4035C18.903 8.40294 18.9036 8.40239 18.9047 8.40129C18.9086 8.39742 18.9124 8.39355 18.9163 8.38969C18.9191 8.38693 18.9224 8.38361 18.9251 8.38085L18.9301 8.3814ZM4.98631 14.6745L6.87137 12.5923L9.20712 11.8179V13.9465L4.98631 14.6751V14.6745ZM9.7865 13.946V11.7925L12.0908 12.5564C12.0908 12.5564 12.0919 12.558 12.0924 12.5586L14.0079 14.6739L9.7865 13.9454V13.946ZM16.7965 11.7113L12.315 12.0206L10.4548 11.4037L16.4463 9.417C16.5982 9.36674 16.6805 9.2027 16.6303 9.05081C16.58 8.89892 16.416 8.81663 16.2641 8.86689L9.77435 11.0187V3.23105C9.77435 3.07088 9.64455 2.94164 9.48493 2.94164C9.32531 2.94164 9.19552 3.07143 9.19552 3.23105V10.9867L2.66548 8.8216C2.51359 8.77134 2.35011 8.85364 2.29929 9.00552C2.24903 9.15741 2.33133 9.32089 2.48321 9.37171L8.61504 11.4048L6.6996 12.0399L2.21258 11.7301C2.11537 11.1314 1.7884 9.55397 0.92955 8.46149C2.30592 8.27149 3.6359 7.36349 4.12194 7.00006L7.57061 9.89586C7.62473 9.94115 7.69101 9.96379 7.75674 9.96379C7.83958 9.96379 7.92132 9.92844 7.97877 9.86051C8.05609 9.76827 8.06603 9.64234 8.01467 9.54182C8.01467 9.51144 8.01025 9.48107 8.00031 9.45069L6.25719 4.09653C6.87082 3.72979 8.64928 2.56882 9.49764 0.997484C10.3454 2.56882 12.1245 3.72924 12.7381 4.09653L10.995 9.45069C10.9834 9.48549 10.9795 9.52139 10.9812 9.55563C10.9464 9.65008 10.9618 9.75943 11.0309 9.84173C11.0883 9.90967 11.1701 9.94501 11.2529 9.94501C11.3186 9.94501 11.3849 9.92292 11.439 9.87708L14.8877 6.98128C15.3737 7.34471 16.7037 8.25272 18.0801 8.44271C17.2212 9.53519 16.8948 11.1121 16.7971 11.7108L16.7965 11.7113Z" fill="white"/>
</svg>
