<svg width="12" height="18" viewBox="0 0 12 18" fill="none" xmlns="http://www.w3.org/2000/svg">
<g clip-path="url(#clip0_219_1816)">
<path d="M0.874154 11.4438C0.874154 11.2416 0.882896 11.0394 0.899213 10.8378C0.906789 10.7445 0.916114 10.6518 0.926603 10.5592C0.930683 10.5231 0.959821 10.3465 0.933597 10.498C0.943504 10.4391 0.950497 10.3797 0.959821 10.3208C1.02393 9.91873 1.11542 9.52186 1.2279 9.13082C1.34037 8.73978 1.48082 8.33709 1.63467 7.95013C1.65448 7.90001 1.67488 7.85048 1.69528 7.80036C1.70577 7.7753 1.71567 7.75082 1.72616 7.72576C1.76346 7.63602 1.68595 7.82017 1.72383 7.73101C1.76637 7.63136 1.8095 7.53228 1.85379 7.4338C1.94295 7.23565 2.03561 7.03926 2.13177 6.84462C2.87131 5.3469 3.79791 3.95 4.75423 2.58399C5.2053 1.94003 5.66685 1.30306 6.10801 0.652108H5.35332C5.858 1.39689 6.37142 2.13642 6.86794 2.88703C7.45246 3.77051 8.01833 4.66681 8.54049 5.58875C8.80739 6.06079 9.06323 6.53924 9.30158 7.02586C9.41872 7.26538 9.53178 7.50664 9.63959 7.75024C9.6664 7.81143 9.6932 7.87262 9.72001 7.93381C9.73167 7.96062 9.74274 7.98743 9.7544 8.01423C9.77654 8.06552 9.71768 7.9274 9.73924 7.97869C9.7474 7.99792 9.75498 8.01715 9.76314 8.0358C9.81326 8.15701 9.86221 8.27939 9.90941 8.40178C10.0883 8.86508 10.2451 9.33712 10.3663 9.81849C10.4234 10.0452 10.4724 10.2742 10.5108 10.505C10.5196 10.5586 10.5283 10.6116 10.5359 10.6653C10.5376 10.6792 10.5411 10.6938 10.5417 10.7078C10.5417 10.7078 10.526 10.5866 10.5347 10.6553C10.5382 10.6833 10.5417 10.7119 10.5452 10.7398C10.558 10.8512 10.5685 10.9625 10.5761 11.0744C10.5913 11.3127 10.5913 11.5516 10.5796 11.79C10.5732 11.9211 10.5633 12.0517 10.5493 12.1822C10.5458 12.2154 10.5423 12.2492 10.5382 12.2824C10.5341 12.3157 10.5137 12.434 10.5382 12.2906C10.5271 12.3564 10.519 12.4223 10.5079 12.4882C10.4234 12.9923 10.2812 13.4824 10.0895 13.9562C10.0627 14.0214 10.1041 13.9212 10.1058 13.9171C10.0994 13.9317 10.0936 13.9462 10.0872 13.9608C10.0743 13.99 10.0621 14.0185 10.0487 14.0471C10.0231 14.1042 9.99624 14.1613 9.96885 14.2172C9.91407 14.3291 9.85638 14.4393 9.79519 14.5482C9.67864 14.7551 9.55043 14.9562 9.41114 15.1485C9.39308 15.173 9.3756 15.1975 9.35695 15.2219C9.33772 15.2476 9.26662 15.3332 9.35695 15.2237C9.31848 15.2703 9.28235 15.3181 9.24389 15.3647C9.16755 15.4568 9.08829 15.5465 9.00612 15.6339C8.84644 15.8035 8.67685 15.9638 8.49736 16.1124C8.45482 16.1474 8.41111 16.1806 8.36857 16.2155C8.37032 16.2138 8.45948 16.1468 8.4047 16.187C8.39305 16.1957 8.38139 16.2045 8.36973 16.2132C8.34642 16.2307 8.32253 16.2476 8.29922 16.2651C8.20481 16.3333 8.10807 16.398 8.00958 16.4591C7.8161 16.5792 7.61505 16.6864 7.407 16.7791C7.38369 16.7896 7.36038 16.7989 7.33765 16.8094C7.46936 16.7499 7.37495 16.7937 7.34231 16.8065C7.2887 16.828 7.23508 16.8484 7.18089 16.8677C7.07249 16.9067 6.96235 16.9417 6.85104 16.9726C6.73973 17.0035 6.62667 17.0303 6.51303 17.053C6.45942 17.0635 6.4058 17.0734 6.35219 17.0821C6.32713 17.0862 6.30149 17.0897 6.27643 17.0938C6.20708 17.1043 6.32655 17.0874 6.32771 17.0874C6.31023 17.0909 6.291 17.092 6.27351 17.0944C6.04215 17.1218 5.80846 17.1317 5.57536 17.1235C5.45764 17.1194 5.33992 17.1113 5.2222 17.0979C5.19364 17.0949 5.16334 17.0932 5.13478 17.0874C5.12546 17.0856 5.24434 17.1031 5.19656 17.0955C5.18199 17.0932 5.16742 17.0915 5.15343 17.0891C5.09224 17.0798 5.03105 17.0693 4.97044 17.0577C4.75015 17.0151 4.53336 16.9563 4.32182 16.8828C4.26762 16.8636 4.21342 16.8438 4.15981 16.8228C4.1365 16.8135 4.11319 16.8041 4.08929 16.7948C4.07239 16.7878 4.02344 16.7674 4.09162 16.796C4.16389 16.8269 4.10095 16.7995 4.08405 16.7925C3.97857 16.7465 3.87425 16.6963 3.77227 16.6427C3.57005 16.5367 3.3754 16.4166 3.18891 16.2843C3.14404 16.2528 3.10033 16.2202 3.05663 16.187C3.0001 16.1445 3.14346 16.2558 3.05837 16.1882C3.03565 16.1701 3.01234 16.1514 2.98961 16.1328C2.8987 16.0582 2.80953 15.9807 2.72386 15.9003C2.55195 15.7406 2.39052 15.5698 2.24017 15.3898C2.20403 15.3466 2.16849 15.3029 2.13294 15.2586C2.12361 15.247 2.11487 15.2347 2.10496 15.2231C2.10729 15.226 2.17315 15.3128 2.13177 15.2575C2.1137 15.233 2.09506 15.2091 2.07757 15.1846C2.00531 15.0867 1.93596 14.9859 1.86952 14.8839C1.73724 14.6794 1.6166 14.4672 1.50879 14.2487C1.48257 14.1963 1.45751 14.1432 1.43303 14.0896C1.41963 14.0611 1.40681 14.0325 1.39398 14.0034C1.38583 13.9847 1.33862 13.8746 1.36893 13.9468C1.39923 14.0191 1.36193 13.9299 1.35436 13.9113C1.3427 13.8821 1.33046 13.8524 1.31939 13.8227C1.29608 13.7633 1.27393 13.7038 1.25295 13.6432C1.16787 13.4031 1.09619 13.1583 1.0385 12.9107C1.00877 12.7825 0.982549 12.6531 0.960404 12.5237C0.949914 12.4625 0.940007 12.4007 0.931266 12.339C0.928935 12.3226 0.926603 12.3057 0.924272 12.2894C0.924855 12.2947 0.938842 12.4042 0.9301 12.3308C0.926021 12.2976 0.921941 12.2644 0.918445 12.2312C0.889306 11.9689 0.87532 11.7055 0.874737 11.4415C0.874737 11.2131 0.674264 10.9939 0.43766 11.0044C0.201055 11.0149 0 11.1985 0 11.4438C0.00174831 12.5645 0.253505 13.6747 0.748859 14.6805C1.20517 15.6071 1.88293 16.4172 2.72153 17.0204C3.56014 17.6235 4.51005 17.9464 5.50892 17.9947C6.51012 18.0431 7.51947 17.7733 8.37789 17.2599C9.23631 16.7465 9.97818 15.9696 10.4939 15.0908C11.0534 14.138 11.3658 13.0558 11.445 11.9561C11.5173 10.9566 11.3442 9.9601 11.047 9.00727C10.7212 7.96178 10.2626 6.95709 9.75556 5.98853C9.24855 5.01997 8.67394 4.06714 8.07777 3.13995C7.54978 2.31825 6.99848 1.51228 6.44718 0.705723C6.33412 0.540799 6.22165 0.375293 6.10917 0.209786C5.91861 -0.0711087 5.54447 -0.0711087 5.35449 0.209786C4.50364 1.46449 3.59452 2.6784 2.7769 3.95583C1.83806 5.42324 0.984298 6.97632 0.461553 8.64479C0.178327 9.54867 0.00174831 10.4957 0 11.4438C0 11.6723 0.201055 11.8914 0.437077 11.8809C0.673099 11.8704 0.873571 11.6886 0.874154 11.4438Z" fill="white"/>
<path d="M3.44013 14.4457C3.61321 14.2353 3.78571 14.0249 3.9588 13.8145C4.37373 13.3093 4.78866 12.8046 5.20359 12.2993C5.70244 11.6927 6.20071 11.0854 6.69956 10.4788C7.13314 9.95078 7.5673 9.4228 8.00089 8.89481C8.21126 8.63839 8.42281 8.38314 8.63261 8.12613C8.63552 8.12264 8.63844 8.11914 8.64135 8.11564C8.71711 8.02357 8.76956 7.93032 8.76956 7.80678C8.76956 7.69955 8.72177 7.57134 8.64135 7.49791C8.48109 7.35047 8.17805 7.30909 8.02303 7.49791C7.84995 7.70829 7.67745 7.91867 7.50437 8.12905C7.08943 8.63431 6.6745 9.13899 6.25957 9.64425C5.76072 10.2509 5.26245 10.8582 4.7636 11.4648C4.33002 11.9928 3.89586 12.5208 3.46228 13.0488C3.2519 13.3052 3.04035 13.5605 2.83055 13.8175C2.82764 13.821 2.82473 13.8245 2.82181 13.828C2.74605 13.92 2.6936 14.0133 2.6936 14.1368C2.6936 14.244 2.74139 14.3723 2.82181 14.4457C2.98207 14.5931 3.28511 14.6345 3.44013 14.4457Z" fill="white"/>
<path d="M4.30843 8.9968C4.30843 9.03701 4.30552 9.07722 4.30086 9.11743L4.31659 9.00146C4.30494 9.08597 4.28337 9.16697 4.25132 9.24564L4.29561 9.14133C4.27288 9.19378 4.24666 9.24506 4.21577 9.29285C4.20761 9.30567 4.19654 9.31849 4.18897 9.33189C4.16857 9.36919 4.26531 9.24215 4.21694 9.29576C4.19771 9.31674 4.17964 9.3383 4.15924 9.3587C4.13885 9.3791 4.11787 9.39716 4.09631 9.4164C4.05202 9.45661 4.13943 9.38085 4.14001 9.38318C4.14118 9.38667 4.10446 9.40824 4.10097 9.41057C4.05027 9.44437 3.99723 9.47176 3.94129 9.49565L4.0456 9.45136C3.96693 9.48341 3.88593 9.50498 3.80142 9.51663L3.9174 9.5009C3.83697 9.51022 3.75713 9.51022 3.67671 9.5009L3.79268 9.51663C3.70818 9.50498 3.62718 9.48341 3.5485 9.45136L3.65282 9.49565C3.60037 9.47292 3.54909 9.4467 3.5013 9.41581C3.48848 9.40765 3.47566 9.39658 3.46225 9.38901C3.42496 9.36861 3.552 9.46535 3.49838 9.41698C3.4774 9.39775 3.45584 9.37968 3.43544 9.35928C3.41505 9.33889 3.39698 9.31791 3.37775 9.29635C3.33754 9.25205 3.4133 9.33947 3.41097 9.34005C3.40747 9.34122 3.38591 9.3045 3.38358 9.30101C3.34978 9.25031 3.32239 9.19727 3.29849 9.14133L3.34278 9.24564C3.31073 9.16697 3.28917 9.08597 3.27751 9.00146L3.29325 9.11743C3.28392 9.03701 3.28392 8.95717 3.29325 8.87675L3.27751 8.99272C3.28917 8.90822 3.31073 8.82722 3.34278 8.74854L3.29849 8.85286C3.32122 8.80041 3.34745 8.74912 3.37833 8.70134C3.38649 8.68852 3.39756 8.6757 3.40514 8.66229C3.42554 8.62499 3.3288 8.75204 3.37717 8.69842C3.3964 8.67744 3.41447 8.65588 3.43486 8.63548C3.45526 8.61509 3.47624 8.59702 3.4978 8.57779C3.54209 8.53758 3.45468 8.61334 3.45409 8.61101C3.45293 8.60751 3.48964 8.58595 3.49314 8.58362C3.54384 8.54982 3.59687 8.52243 3.65282 8.49853L3.5485 8.54282C3.62718 8.51077 3.70818 8.48921 3.79268 8.47755L3.67671 8.49329C3.75713 8.48396 3.83697 8.48396 3.9174 8.49329L3.80142 8.47755C3.88593 8.48921 3.96693 8.51077 4.0456 8.54282L3.94129 8.49853C3.99374 8.52126 4.04502 8.54749 4.09281 8.57837C4.10563 8.58653 4.11845 8.5976 4.13185 8.60518C4.16915 8.62558 4.04211 8.52884 4.09572 8.57721C4.1167 8.59644 4.13827 8.6145 4.15866 8.6349C4.17906 8.6553 4.19712 8.67628 4.21636 8.69784C4.25657 8.74213 4.18081 8.65472 4.18314 8.65413C4.18663 8.65297 4.2082 8.68968 4.21053 8.69318C4.24433 8.74388 4.27172 8.79691 4.29561 8.85286L4.25132 8.74854C4.28337 8.82722 4.30494 8.90822 4.31659 8.99272L4.30086 8.87675C4.30552 8.91696 4.30785 8.95659 4.30843 8.99738C4.31076 9.22583 4.50774 9.44495 4.74551 9.43446C4.98328 9.42397 5.18492 9.24215 5.18259 8.99738C5.17967 8.72581 5.10275 8.44434 4.94365 8.22172C4.76416 7.97054 4.5328 7.79397 4.24316 7.68674C3.73441 7.4985 3.10152 7.67158 2.75594 8.08826C2.55546 8.33011 2.44415 8.60285 2.41735 8.91638C2.39462 9.18387 2.4698 9.47176 2.60616 9.70137C2.74078 9.92748 2.94708 10.1268 3.18718 10.2381C3.47799 10.3721 3.7787 10.4094 4.09339 10.3494C4.72686 10.2282 5.17618 9.62794 5.18259 8.99738C5.18492 8.76894 4.97978 8.54982 4.74551 8.56031C4.51124 8.5708 4.31076 8.75204 4.30843 8.99738V8.9968Z" fill="white"/>
<path d="M8.17574 12.9457C8.17574 12.9859 8.17283 13.0261 8.16817 13.0663L8.1839 12.9503C8.17225 13.0348 8.15068 13.1158 8.11863 13.1945L8.16292 13.0902C8.14019 13.1426 8.11397 13.1939 8.08308 13.2417C8.07492 13.2545 8.06385 13.2673 8.05628 13.2807C8.03588 13.318 8.13262 13.191 8.08425 13.2446C8.06502 13.2656 8.04695 13.2872 8.02655 13.3076C8.00616 13.328 7.98518 13.346 7.96361 13.3652C7.91932 13.4055 8.00674 13.3297 8.00732 13.332C8.00849 13.3355 7.97177 13.3571 7.96828 13.3594C7.91758 13.3932 7.86454 13.4206 7.8086 13.4445L7.91291 13.4002C7.83424 13.4323 7.75324 13.4538 7.66873 13.4655L7.78471 13.4497C7.70428 13.4591 7.62444 13.4591 7.54402 13.4497L7.65999 13.4655C7.57549 13.4538 7.49449 13.4323 7.41581 13.4002L7.52013 13.4445C7.46768 13.4218 7.41639 13.3956 7.36861 13.3647C7.35579 13.3565 7.34297 13.3454 7.32956 13.3379C7.29226 13.3175 7.41931 13.4142 7.36569 13.3658C7.34471 13.3466 7.32315 13.3285 7.30275 13.3081C7.28236 13.2877 7.26429 13.2668 7.24506 13.2452C7.20485 13.2009 7.28061 13.2883 7.27828 13.2889C7.27478 13.2901 7.25322 13.2534 7.25089 13.2499C7.21709 13.1992 7.1897 13.1461 7.1658 13.0902L7.21009 13.1945C7.17804 13.1158 7.15648 13.0348 7.14482 12.9503L7.16056 13.0663C7.15123 12.9859 7.15123 12.906 7.16056 12.8256L7.14482 12.9416C7.15648 12.8571 7.17804 12.7761 7.21009 12.6974L7.1658 12.8017C7.18853 12.7493 7.21476 12.698 7.24564 12.6502C7.2538 12.6374 7.26487 12.6245 7.27245 12.6111C7.29285 12.5738 7.19611 12.7009 7.24448 12.6473C7.26371 12.6263 7.28178 12.6047 7.30217 12.5843C7.32257 12.5639 7.34355 12.5459 7.36511 12.5266C7.4094 12.4864 7.32199 12.5622 7.3214 12.5599C7.32024 12.5564 7.35695 12.5348 7.36045 12.5325C7.41115 12.4987 7.46418 12.4713 7.52013 12.4474L7.41581 12.4917C7.49449 12.4596 7.57549 12.4381 7.65999 12.4264L7.54402 12.4421C7.62444 12.4328 7.70428 12.4328 7.78471 12.4421L7.66873 12.4264C7.75324 12.4381 7.83424 12.4596 7.91291 12.4917L7.8086 12.4474C7.86105 12.4701 7.91233 12.4963 7.96012 12.5272C7.97294 12.5354 7.98576 12.5465 7.99916 12.554C8.03646 12.5744 7.90942 12.4777 7.96303 12.5261C7.98401 12.5453 8.00557 12.5634 8.02597 12.5838C8.04637 12.6042 8.06443 12.6251 8.08367 12.6467C8.12388 12.691 8.04812 12.6036 8.05045 12.603C8.05394 12.6018 8.07551 12.6385 8.07784 12.642C8.11164 12.6927 8.13903 12.7458 8.16292 12.8017L8.11863 12.6974C8.15068 12.7761 8.17225 12.8571 8.1839 12.9416L8.16817 12.8256C8.17283 12.8658 8.17516 12.9054 8.17574 12.9462C8.17807 13.1747 8.37505 13.3938 8.61282 13.3833C8.85059 13.3728 9.05223 13.191 9.0499 12.9462C9.04698 12.6747 8.97006 12.3932 8.81096 12.1706C8.63147 11.9194 8.40011 11.7428 8.11047 11.6356C7.60172 11.4474 6.96883 11.6204 6.62325 12.0371C6.42277 12.279 6.31146 12.5517 6.28466 12.8652C6.26193 13.1327 6.33711 13.4206 6.47347 13.6502C6.60809 13.8763 6.81439 14.0756 7.0545 14.187C7.3453 14.321 7.64601 14.3583 7.9607 14.2983C8.59417 14.177 9.04349 13.5768 9.0499 12.9462C9.05223 12.7178 8.84709 12.4987 8.61282 12.5092C8.37855 12.5196 8.17807 12.7009 8.17574 12.9462V12.9457Z" fill="white"/>
</g>
<defs>
<clipPath id="clip0_219_1816">
<rect width="11.4607" height="18" fill="white"/>
</clipPath>
</defs>
</svg>
