<svg width="24" height="25" viewBox="0 0 24 25" fill="none" xmlns="http://www.w3.org/2000/svg">
<path d="M22.5566 21.4412C22.4317 19.9951 21.7572 18.5707 20.9993 17.4724C19.5753 15.4065 17.2435 13.8299 15.2032 13.819C15.2948 13.7538 15.3864 13.6885 15.4864 13.6341C17.1269 12.6229 19.009 12.2532 20.6163 11.155C21.2075 10.7527 21.7488 10.2634 22.3151 9.8176C22.6149 9.57838 22.9147 9.36092 23.2312 9.1652C23.4227 9.04559 23.6975 8.92598 23.5809 8.61065C23.4311 8.19747 22.7482 7.88214 22.4484 7.7734C21.9487 7.58856 21.4324 7.57768 20.9244 7.57768C20.1582 7.57768 19.4004 7.57768 18.6343 7.59943C18.0513 7.6103 17.46 7.62118 16.9187 7.82777C16.4357 8.01262 16.011 8.33882 15.5863 8.66502C15.2116 8.9586 14.8368 9.25218 14.512 9.62188C14.2955 9.86109 14.1789 10.209 14.004 10.4917C14.1206 9.51314 14.4371 8.70851 14.8868 7.95825C15.0283 7.71904 15.2116 7.46895 15.4614 7.50157C15.6113 7.52332 15.7445 7.64292 15.8944 7.67554C16.0693 7.71904 16.2442 7.6103 16.3358 7.42546C16.4274 7.24061 16.4108 6.96878 16.3025 6.77306C16.1942 6.56646 16.0027 6.44685 15.8195 6.43598C15.6363 6.42511 15.4614 6.49035 15.3032 6.59908C14.8285 6.90354 14.5287 7.50157 14.2705 8.07786C14.1373 8.38231 14.029 8.66502 13.9374 9.0021C13.8375 9.38266 13.7375 9.75236 13.6126 10.1221C13.6459 9.75236 13.6959 9.39354 13.7625 9.03471C13.8208 8.70851 13.9291 8.44755 14.029 8.1431C14.2039 7.59943 14.3621 7.04489 14.4704 6.45773C14.8118 4.631 14.2372 2.57594 14.8951 0.857946C14.9451 0.727466 15.0034 0.586112 15.0367 0.444759C15.0533 0.379518 15.0533 0.303405 15.0367 0.227291C15.0034 0.140304 14.9284 0.0859375 14.8618 0.0859375C14.7952 0.0859375 14.7285 0.107684 14.6619 0.129431C13.1796 0.716593 11.6972 1.83655 11.031 3.70677C10.573 5.0007 10.6396 6.25113 10.7395 7.68642C10.498 7.52332 10.2815 6.65345 10.1399 6.32725C9.94008 5.83795 9.73189 5.35952 9.52369 4.88109C9.27386 4.3048 9.00737 3.72851 8.64928 3.26096C8.29119 2.79341 7.8165 2.42371 7.33349 2.40196C7.15028 2.40196 6.96707 2.43458 6.83383 2.58681C6.584 2.85864 6.62563 3.45668 6.88379 3.78288C7.15028 4.10908 7.56667 4.13083 7.83316 3.89161C7.91644 3.8155 7.99971 3.70677 8.10798 3.71764C8.16627 3.71764 8.22456 3.76113 8.27453 3.8155C8.52436 4.03297 8.69925 4.37004 8.85747 4.70712C9.15727 5.3269 9.39878 5.9793 9.64861 6.64258C10.0234 7.62118 10.3898 8.59978 10.7645 9.58926C10.8811 9.89371 10.9977 10.1982 11.106 10.5135C11.1226 10.644 11.1476 10.7853 11.1643 10.9158C11.1393 10.7745 10.8728 10.4917 10.7978 10.3721C10.6729 10.1873 10.5563 10.0133 10.4397 9.82847C10.1982 9.4479 9.95674 9.06734 9.71523 8.68677C9.47373 8.3062 9.24888 7.90389 9.02403 7.51244C8.90744 7.30585 8.51604 6.78393 8.58266 6.51209C8.59931 6.44685 8.63262 6.40336 8.66594 6.34899C8.82416 6.09891 8.83249 5.69659 8.68259 5.40301C8.45774 4.96808 7.79152 4.84847 7.6666 5.39214C7.58333 5.74009 7.74988 6.17502 7.89145 6.49035C8.12463 7.02314 8.43276 7.51244 8.75754 7.95825C9.08232 8.40406 9.43209 8.77376 9.69858 9.24131C9.43209 9.02384 9.15727 8.80637 8.87413 8.61065C7.61664 7.72991 6.25921 7.06664 4.8768 6.90354C3.50272 6.74044 2.11199 7.08838 1.04604 8.07786C0.837842 8.27358 0.629648 8.50192 0.546371 8.82812C0.463093 9.15432 0.521387 9.58926 0.754565 9.79585C0.912792 9.94808 1.11266 9.95895 1.3042 9.96982C2.66995 10.0894 4.05236 10.5679 5.33483 11.3725C6.01771 11.7965 6.66727 12.3185 7.36681 12.7099C7.86647 12.9926 8.39112 13.1992 8.89078 13.471C9.14062 13.6124 9.44874 13.7429 9.67359 13.9495C8.09132 13.7755 6.45075 15.0042 5.63463 16.6352C5.13497 17.6247 4.82684 18.799 4.51038 19.919C4.07734 21.4412 3.66928 23.7138 4.9351 25.0186C5.61798 24.0182 6.32584 23.0179 7.17527 22.2676C8.04968 21.4847 9.04901 20.9737 9.97339 20.2995C10.8978 19.6254 11.7722 18.7229 12.1803 17.429C12.1803 17.429 13.5377 18.8099 13.6709 18.9621C14.1872 19.5166 14.8285 19.9624 15.4447 20.2017C16.5107 20.6148 17.585 20.5822 18.6592 20.8541C19.7335 21.1259 20.8828 21.6478 21.9237 22.3437C22.1069 22.4633 22.3318 22.5938 22.4817 22.4524C22.5899 22.3546 22.6149 22.148 22.6149 21.9523C22.6149 21.8 22.6066 21.6478 22.5899 21.4847L22.5566 21.4412Z" fill="#BFB6E5"/>
</svg>
