<svg width="18" height="18" viewBox="0 0 18 18" fill="none" xmlns="http://www.w3.org/2000/svg">
<g clip-path="url(#clip0_219_1738)">
<path d="M17.0867 8.09093C17.0136 8.00882 16.9005 7.97451 16.7942 8.00151C14.9568 8.47112 14.0868 9.49696 13.6762 10.3175C13.2854 8.60441 12.1926 7.15508 10.7174 6.29065C10.7191 6.28221 10.7208 6.27321 10.7219 6.26478C10.7247 6.24284 10.7905 5.7153 10.5751 5.06797C10.3766 4.47293 9.89513 3.65519 8.72588 3.13552C6.83055 2.29302 6.48186 0.26834 6.47848 0.248655C6.45824 0.119863 6.35531 0.0197536 6.22596 0.00288121C6.0966 -0.0139912 5.97119 0.0563104 5.91888 0.176104C5.2378 1.72049 5.12869 3.06184 5.59437 4.16361C5.66242 4.32502 5.7406 4.4735 5.8244 4.61072C5.21643 4.48699 4.37956 4.41894 3.40434 4.6141C1.67436 4.95998 0.55347 3.8256 0.507352 3.77779C0.422428 3.68893 0.290824 3.66194 0.178341 3.71086C0.0652964 3.75979 -0.00556756 3.8734 0.000618975 3.99601C0.00230621 4.02863 0.0461744 4.80138 0.493292 5.60732C0.911164 6.35983 1.76828 7.28274 3.4797 7.40366C3.62087 7.41379 3.75697 7.41828 3.8897 7.41828C5.18268 7.41828 6.1011 6.97117 6.85305 6.6056C7.55381 6.26478 8.10723 5.99538 8.74107 6.16579C8.77931 6.17592 8.81812 6.17817 8.85524 6.17311C9.60999 6.35083 10.3074 6.67928 10.9137 7.12414C9.99524 6.75914 9.04421 6.81875 8.11623 7.3103C8.00318 7.36992 7.94188 7.49534 7.96381 7.62132C7.97956 7.70961 8.36819 9.79054 10.556 10.2888C11.331 10.4654 11.9209 10.5228 12.3596 10.5228C12.6869 10.5228 12.9293 10.4907 13.1031 10.4531C13.1954 10.8597 13.2449 11.2826 13.2449 11.7168C13.2449 14.3438 11.4564 16.5609 9.03352 17.2155C9.14038 17.0873 9.24724 16.9399 9.34735 16.7712C9.86364 15.9 10.0172 14.8089 9.8029 13.5278C9.29504 10.4874 5.48639 9.13927 5.32441 9.08359C5.19281 9.03803 5.04714 9.0909 4.97572 9.21069C4.90429 9.32992 4.92622 9.48346 5.02858 9.57795C5.64049 10.1437 5.67817 11.3006 5.16919 13.8472C4.85761 15.4051 5.43015 16.4371 5.96556 17.0282C6.0353 17.1053 6.10673 17.1773 6.17759 17.2436C4.76931 16.9264 2.9994 16.1059 2.05061 14.3416C1.97356 14.1982 1.79528 14.1447 1.65186 14.2218C1.50845 14.2988 1.45502 14.4771 1.53207 14.6205C2.78062 16.9427 5.52688 18.0006 7.55044 18.0006C9.98906 18.0006 12.1077 16.6042 13.1487 14.5694C13.3169 14.5609 14.0317 14.5047 14.7594 14.1622C15.5356 13.7966 16.4669 13.0323 16.4962 11.4665C16.5232 10.0268 17.1362 8.40869 17.1424 8.39238C17.1817 8.28946 17.1604 8.1736 17.0873 8.09149L17.0867 8.09093ZM6.59546 6.07524C5.78953 6.46725 4.87617 6.91155 3.52076 6.81538C1.66761 6.68378 0.983715 5.48752 0.732317 4.68609C1.32454 5.04941 2.29245 5.43522 3.51963 5.19001C5.05952 4.88181 6.23102 5.30868 6.53416 5.43691C6.74282 5.61463 6.9436 5.74567 7.10332 5.83622C6.9346 5.91046 6.76587 5.99257 6.59546 6.07581V6.07524ZM7.61005 5.43297C7.51332 5.39023 7.26642 5.26931 6.99028 5.04772C6.96328 5.0061 6.92504 4.97011 6.87723 4.94592C6.87442 4.9448 6.8688 4.94142 6.86149 4.93805C6.5949 4.69959 6.31876 4.36832 6.1326 3.92458C5.81427 3.16589 5.82215 2.25365 6.1551 1.20532C6.4678 1.97582 7.13088 3.06972 8.48686 3.67262C9.97275 4.33289 10.1409 5.52577 10.1465 5.9937C9.37209 5.64106 8.51385 5.44084 7.61062 5.43241L7.61005 5.43297ZM7.43852 17.3955C7.34853 17.3589 5.2468 16.4647 5.74678 13.9625C6.1371 12.0115 6.21696 10.8074 5.96444 10.0059C7.06677 10.5599 8.90923 11.7494 9.22249 13.6245C9.68029 16.3623 8.13479 17.283 7.91432 17.3994C7.79396 17.4073 7.67248 17.4112 7.54988 17.4112C7.52344 17.4112 7.49532 17.4107 7.46776 17.4101C7.4582 17.405 7.44808 17.4 7.43739 17.3955H7.43852ZM10.6876 9.71461C9.24218 9.38504 8.74444 8.21466 8.59765 7.72986C9.58693 7.28668 10.5723 7.42728 11.5301 8.1483C12.3281 8.74951 12.8084 9.54308 12.8135 9.55095C12.8163 9.55601 12.8197 9.56051 12.8231 9.56557C12.8658 9.67018 12.9063 9.77648 12.9428 9.8839C12.6206 9.94689 11.9266 9.99694 10.687 9.71461H10.6876ZM15.9073 11.4547C15.8713 13.395 14.1582 13.8461 13.4231 13.9501C13.6256 13.4198 13.7583 12.8546 13.8095 12.2668C13.827 12.2263 13.836 12.1814 13.8337 12.1341C13.8337 12.1274 13.8005 11.4339 14.1672 10.6538C14.5868 9.76073 15.3382 9.11677 16.4039 8.73489C16.2077 9.36423 15.9264 10.4345 15.9073 11.4547Z" fill="white"/>
</g>
<defs>
<clipPath id="clip0_219_1738">
<rect width="17.1614" height="18" fill="white"/>
</clipPath>
</defs>
</svg>
