<svg width="23" height="17" viewBox="0 0 23 17" fill="none" xmlns="http://www.w3.org/2000/svg">
<path d="M11.1018 17C14.6004 17 17.4465 14.1539 17.4465 10.6554C17.4465 7.15684 14.6004 4.31076 11.1018 4.31076C7.60328 4.31076 4.7572 7.15684 4.7572 10.6554C4.7572 14.1539 7.60328 17 11.1018 17ZM11.1018 16.2853C7.99735 16.2853 5.47196 13.7599 5.47196 10.6554C5.47196 7.55091 7.99735 5.02613 11.1018 5.02613C14.2063 5.02613 16.7317 7.55153 16.7317 10.6554C16.7317 13.7592 14.2063 16.2853 11.1018 16.2853Z" fill="white"/>
<path d="M3.66568 10.3772C3.66568 10.5746 3.50533 10.7349 3.30799 10.7349H0.357687C0.160342 10.7349 0 10.5746 0 10.3772C0 10.1799 0.160342 10.0196 0.357687 10.0196H3.30861C3.50595 10.0196 3.66629 10.1793 3.66629 10.3772H3.66568Z" fill="white"/>
<path d="M18.5381 10.3772C18.5381 10.1799 18.6978 10.0196 18.8958 10.0196H21.8467C22.044 10.0196 22.2044 10.1793 22.2044 10.3772C22.2044 10.5752 22.044 10.7349 21.8467 10.7349H18.8958C18.6984 10.7349 18.5381 10.5746 18.5381 10.3772Z" fill="white"/>
<path d="M4.4693 6.68811C4.60189 6.74793 4.68022 6.87805 4.68022 7.01434C4.68022 7.06368 4.66973 7.11363 4.64876 7.16112C4.56736 7.3412 4.35583 7.42137 4.17637 7.33996L2.93125 6.77876C2.75117 6.69798 2.671 6.48583 2.75241 6.30637C2.83381 6.12629 3.04534 6.04612 3.22542 6.12753L4.47054 6.68873L4.4693 6.68811Z" fill="white"/>
<path d="M7.65815 1.84271L8.20024 3.09646C8.21997 3.14271 8.22984 3.19082 8.22984 3.2383C8.22984 3.37644 8.14905 3.50842 8.01399 3.56639C7.83268 3.64471 7.62239 3.56146 7.54406 3.38015L7.00198 2.12639C6.92366 1.94508 7.00692 1.73478 7.18823 1.65646C7.36954 1.57814 7.57983 1.6614 7.65815 1.84271Z" fill="white"/>
<path d="M5.90246 4.45692C5.97215 4.5266 6.0073 4.61788 6.0073 4.70976C6.0073 4.80165 5.97215 4.89292 5.90246 4.96261C5.76309 5.10199 5.53676 5.10199 5.39677 4.96261L3.31046 2.87631C3.17109 2.73693 3.17109 2.51061 3.31046 2.37061C3.44984 2.23124 3.67617 2.23124 3.81616 2.37061L5.90246 4.45692Z" fill="white"/>
<path d="M17.7351 6.68811C17.6025 6.74793 17.5242 6.87805 17.5242 7.01434C17.5242 7.06368 17.5347 7.11363 17.5556 7.16112C17.637 7.3412 17.8486 7.42137 18.0286 7.33996L19.2738 6.77876C19.4538 6.69798 19.534 6.48583 19.4526 6.30637C19.3712 6.12629 19.1597 6.04612 18.9802 6.12753L17.7351 6.68873V6.68811Z" fill="white"/>
<path d="M14.5456 1.84271L14.0035 3.09646C13.9837 3.14271 13.9739 3.19082 13.9739 3.2383C13.9739 3.37644 14.0547 3.50842 14.1897 3.56639C14.371 3.64471 14.5813 3.56146 14.6596 3.38015L15.2017 2.12639C15.2801 1.94508 15.1968 1.73478 15.0155 1.65646C14.8342 1.57814 14.6239 1.6614 14.5456 1.84271Z" fill="white"/>
<path d="M16.3012 4.4569C16.2316 4.52659 16.1964 4.61786 16.1964 4.70975C16.1964 4.80164 16.2316 4.89291 16.3012 4.9626C16.4406 5.10197 16.667 5.10197 16.8069 4.9626L18.8932 2.8763C19.0326 2.73692 19.0326 2.51059 18.8932 2.3706C18.7539 2.23061 18.5275 2.23123 18.3876 2.3706L16.3012 4.4569Z" fill="white"/>
<path d="M11.1018 3.47758C10.9045 3.47758 10.7441 3.31786 10.7441 3.11989V0.357687C10.7441 0.160342 10.9045 0 11.1018 0C11.2992 0 11.4595 0.159726 11.4595 0.357687V3.11989C11.4595 3.31724 11.2992 3.47758 11.1018 3.47758Z" fill="white"/>
</svg>
