<svg width="18" height="18" viewBox="0 0 18 18" fill="none" xmlns="http://www.w3.org/2000/svg">
<path d="M16.0671 8.9985L17.9036 7.16204C18.0329 7.0327 18.0329 6.82253 17.9036 6.69259C17.7743 6.56325 17.5641 6.56325 17.4341 6.69259L15.4013 8.72546H12.9672L15.5168 6.17584C15.6462 6.0465 15.6462 5.83633 15.5168 5.7064C15.3875 5.57706 15.1773 5.57706 15.0474 5.7064L12.0283 8.72546H9.71045L11.3068 7.1291C11.4361 6.99977 11.4361 6.78959 11.3068 6.65966C11.1775 6.53032 10.9673 6.53032 10.8374 6.65966L9.3919 8.10512V5.8531L12.2924 2.9526C12.4217 2.82326 12.4217 2.61309 12.2924 2.48315C12.1631 2.35381 11.9529 2.35381 11.823 2.48315L9.3913 4.91481V2.48076L11.3056 0.566448C11.4349 0.437111 11.4349 0.226939 11.3056 0.0970028C11.1763 -0.0323342 10.9661 -0.0323342 10.8362 0.0970028L8.9997 1.93347L7.16323 0.0970028C7.03389 -0.0323342 6.82372 -0.0323342 6.69378 0.0970028C6.56445 0.22634 6.56445 0.436512 6.69378 0.566448L8.72666 2.59931V5.03337L6.17704 2.48375C6.0477 2.35441 5.83753 2.35441 5.70759 2.48375C5.57766 2.61309 5.57825 2.82326 5.70759 2.9532L8.72666 5.97226V8.22428L7.16323 6.66086C7.03389 6.53152 6.82372 6.53152 6.69378 6.66086C6.56445 6.79019 6.56445 7.00037 6.69378 7.1303L8.29014 8.72666H5.97226L2.95319 5.70759C2.82386 5.57826 2.61368 5.57826 2.48375 5.70759C2.35441 5.83693 2.35441 6.0471 2.48375 6.17704L5.03336 8.72666H2.59931L0.566446 6.69379C0.437109 6.56445 0.226939 6.56445 0.0970028 6.69379C-0.0323343 6.82313 -0.0323343 7.0333 0.0970028 7.16323L1.93346 8.9997L0.0970028 10.8362C-0.0323343 10.9655 -0.0323343 11.1757 0.0970028 11.3056C0.161671 11.3703 0.246694 11.4026 0.331721 11.4026C0.416748 11.4026 0.501778 11.3703 0.566446 11.3056L2.48075 9.3913H4.9148L2.48315 11.823C2.35381 11.9523 2.35381 12.1625 2.48315 12.2924C2.54782 12.3571 2.63284 12.3894 2.71787 12.3894C2.80289 12.3894 2.88792 12.3571 2.95259 12.2924L5.8531 9.3919H8.24523L6.69319 10.9439C6.56385 11.0733 6.56385 11.2835 6.69319 11.4134C6.82252 11.5427 7.0327 11.5427 7.16264 11.4134L8.72606 9.84997V12.0277L5.70699 15.0468C5.57766 15.1761 5.57766 15.3863 5.70699 15.5162C5.83633 15.6462 6.0465 15.6456 6.17644 15.5162L8.72606 12.9666V15.4007L6.69319 17.4335C6.56385 17.5629 6.56385 17.7731 6.69319 17.903C6.82252 18.0323 7.0327 18.0323 7.16264 17.903L8.9991 16.0665L10.8356 17.903C10.9002 17.9677 10.9853 18 11.0703 18C11.1553 18 11.2403 17.9677 11.305 17.903C11.4343 17.7737 11.4343 17.5635 11.305 17.4335L9.3907 15.5192V13.0852L11.8224 15.5168C11.887 15.5815 11.9721 15.6139 12.0571 15.6139C12.1421 15.6139 12.2271 15.5815 12.2918 15.5168C12.4211 15.3875 12.4211 15.1773 12.2918 15.0474L9.3913 12.1469V9.96913L10.8368 11.4146C10.9014 11.4793 10.9865 11.5116 11.0715 11.5116C11.1565 11.5116 11.2415 11.4793 11.3062 11.4146C11.4355 11.2853 11.4355 11.0751 11.3062 10.9451L9.75416 9.3931H12.1463L15.0468 12.2936C15.1115 12.3583 15.1965 12.3906 15.2815 12.3906C15.3666 12.3906 15.4516 12.3583 15.5162 12.2936C15.6456 12.1643 15.6456 11.9541 15.5162 11.8242L13.0852 9.3925H15.5192L17.4335 11.3068C17.4982 11.3715 17.5832 11.4038 17.6683 11.4038C17.7533 11.4038 17.8383 11.3715 17.903 11.3068C18.0323 11.1775 18.0323 10.9673 17.903 10.8374L16.0665 9.0009L16.0671 8.9985Z" fill="white"/>
</svg>
