<svg width="22" height="23" viewBox="0 0 22 23" fill="none" xmlns="http://www.w3.org/2000/svg">
<path d="M19.0308 22.0764H2.80351C2.55449 22.0779 2.31374 21.9871 2.12772 21.8216C1.94171 21.656 1.82361 21.4274 1.79623 21.1799L1.00048 9.23865C0.996289 9.10524 1.01947 8.97238 1.0686 8.84827C1.11774 8.72417 1.19178 8.61144 1.28616 8.51705C1.38055 8.42267 1.49328 8.34863 1.61738 8.29949C1.74149 8.25036 1.87435 8.22718 2.00776 8.23137H19.9927C20.2599 8.23137 20.5161 8.3375 20.705 8.5264C20.8939 8.7153 21 8.9715 21 9.23865L20.038 21.19C20.0084 21.4357 19.8893 21.6618 19.7035 21.8253C19.5177 21.9888 19.2782 22.0782 19.0308 22.0764V22.0764Z" stroke="#3A4651" stroke-width="1.5" stroke-linecap="round" stroke-linejoin="round"/>
<path d="M5.96133 11.5V5.95995C5.96133 4.62421 6.49196 3.34318 7.43646 2.39868C8.38097 1.45417 9.66199 0.923553 10.9977 0.923553C12.3335 0.923553 13.6145 1.45417 14.559 2.39868C15.5035 3.34318 16.0341 4.62421 16.0341 5.95995V11.5" stroke="#3A4651" stroke-width="1.5" stroke-linecap="round" stroke-linejoin="round"/>
</svg>
