<svg width="22" height="25" viewBox="0 0 22 25" fill="none" xmlns="http://www.w3.org/2000/svg">
<path d="M1 23.7554C1.55017 21.549 2.81044 19.5846 4.58672 18.1648C6.363 16.7449 8.55679 15.9484 10.8302 15.8979C13.1037 15.8473 15.3307 16.5455 17.1683 17.885C19.006 19.2245 20.3523 21.1309 21 23.3107" stroke="#3A4651" stroke-width="1.5" stroke-linecap="round" stroke-linejoin="round"/>
<path d="M11.4989 11.5537H10.4957C9.23861 11.5537 8.03305 11.0543 7.14418 10.1655C6.25531 9.2766 5.75596 8.07104 5.75596 6.814V6.38016C5.75596 5.01812 6.29702 3.71184 7.26013 2.74874C8.22324 1.78563 9.52949 1.24457 10.8915 1.24457C11.5946 1.24386 12.291 1.38183 12.9407 1.65057C13.5904 1.9193 14.1807 2.31353 14.6779 2.8107C15.1751 3.30787 15.5693 3.8982 15.838 4.54792C16.1068 5.19763 16.2447 5.89396 16.244 6.59706V6.814C16.244 8.07104 15.7447 9.2766 14.8558 10.1655C13.9669 11.0543 12.7614 11.5537 11.5043 11.5537H11.4989Z" stroke="#3A4651" stroke-width="1.5" stroke-linecap="round" stroke-linejoin="round"/>
</svg>
